<?xml version="1.0" encoding="utf-8"?>
<!-- Generator: Adobe Illustrator 25.2.1, SVG Export Plug-In . SVG Version: 6.00 Build 0)  -->
<svg version="1.1" id="Layer_1" xmlns="http://www.w3.org/2000/svg" xmlns:xlink="http://www.w3.org/1999/xlink" x="0px" y="0px"
	 viewBox="0 0 352.95 262.64" style="enable-background:new 0 0 352.95 262.64;" xml:space="preserve">
<style type="text/css">
	.st0{fill:#868686;}
	.st1{fill:#45972B;}
	.st2{fill:#015fc9d1;} 
</style>
<g>
	<g>
		<path class="st0" d="M282.68,142.89h18.11l8.87,29.57l9.86-29.57H338c0,0-16.14,41.85-22.02,57.88c-1.36,3.71-3.51,7.12-6.47,9.75
			c-0.06,0.05-0.12,0.1-0.17,0.15c-3.45,3.02-7.92,4.57-12.51,4.66c-2.74,0.05-6.25-0.14-9.47-1.11l2.34-11.7
			c0,0,8.55,3.03,11.56-4.16c1-2.38,0.91-5.08-0.02-7.48L282.68,142.89z"/>
	</g>
	<ellipse class="st1" cx="185.56" cy="40.11" rx="26.56" ry="24.11"/>
	<path class="st2" d="M162.86,92.22c-22.26,2.34-33.87,6.69-38.98,11.56c-4.47,4.26-5.18,11.23-1.44,16.12
		c22.7,29.68,82.24-9.5,82.24-9.5c45.51-27.44,51.65-76.29,51.65-76.29C229.91,85.31,162.86,92.22,162.86,92.22z"/>
	<path class="st0" d="M81.73,139.87c-7.32,0-13.1,0-19.98,0c0.47-2.47,0.2-9.98-5.74-11.79c-10.4-3.18-19.52,0.98-20.33,11.16
		c-0.72,8.98-0.85,18.11-0.01,27.08c1.1,11.65,13.13,15.75,21.99,11.68c3.81-3.15,4.56-8.22,4.07-12.38c6.56,0,12.96,0,19.3,0
		c2.14,9.28-3.8,20.33-13.02,24.37c-7.18,3.15-14.83,3.86-22.62,3.05c-4.08-0.43-8.07-1.25-11.87-2.98
		c-10.03-4.54-15.77-11.98-17.39-22.08c-1.63-10.14-1.5-20.34,0.01-30.49c1.46-9.77,9.51-21.28,24.29-23.88
		c9.87-1.74,19.25-0.88,28.27,3.16c6.23,2.79,10,7.51,11.68,13.67C81.17,133.31,81.67,136.33,81.73,139.87z"/>
	<g>
		<rect x="89.48" y="118.42" class="st0" width="17.26" height="128.22"/>
		<rect x="261.55" y="118.42" class="st0" width="17.26" height="128.22"/>
	</g>
	<g>
		<g>
			<path class="st0" d="M146.38,231.01c-0.43,4.11-1.87,7.28-4.3,9.5c-2.44,2.22-5.77,3.33-9.99,3.33c-4.48,0-8.04-1.56-10.69-4.67
				c-2.65-3.11-3.98-7.24-3.98-12.38v-6.42c0-5.13,1.33-9.25,3.98-12.38c2.65-3.13,6.22-4.7,10.69-4.7c4.26,0,7.6,1.1,10.03,3.29
				c2.43,2.19,3.85,5.38,4.26,9.57h-3.22c-0.43-3.34-1.54-5.86-3.33-7.55c-1.79-1.7-4.37-2.54-7.74-2.54c-3.52,0-6.3,1.31-8.35,3.94
				c-2.05,2.63-3.07,6.07-3.07,10.33v6.47c0,4.31,1.02,7.78,3.07,10.39c2.05,2.62,4.83,3.93,8.35,3.93c3.39,0,5.98-0.82,7.76-2.46
				c1.78-1.64,2.88-4.19,3.32-7.63H146.38z"/>
			<path class="st0" d="M175.81,232.14h-17.97l-4.11,11.13h-3.36l14.97-39.41h3.06l14.86,39.41h-3.36L175.81,232.14z M158.86,229.38
				h15.92l-7.9-21.55L158.86,229.38z"/>
			<path class="st0" d="M192.56,225.46v17.81h-3.22v-39.39h13.35c4.31,0,7.57,0.91,9.79,2.72c2.21,1.81,3.32,4.53,3.32,8.16
				c0,2.13-0.6,4-1.8,5.62c-1.2,1.62-2.9,2.8-5.1,3.56v0.08c2.42,0.61,4.14,1.69,5.16,3.23c1.02,1.54,1.53,3.53,1.53,5.97v3.71
				c0,1.25,0.14,2.35,0.42,3.3c0.28,0.96,0.76,1.75,1.45,2.38v0.65h-3.3c-0.67-0.67-1.14-1.58-1.41-2.73
				c-0.27-1.15-0.41-2.37-0.41-3.65v-3.6c0-2.47-0.75-4.39-2.26-5.77c-1.51-1.37-3.69-2.06-6.54-2.06H192.56z M192.56,222.69h9.72
				c3.63,0,6.24-0.7,7.85-2.11c1.61-1.41,2.41-3.36,2.41-5.85c0-2.65-0.8-4.66-2.4-6.04c-1.6-1.37-4.08-2.06-7.46-2.06h-10.12
				V222.69z"/>
			<path class="st0" d="M248.11,224.18h-18.98v16.35h21.74v2.73h-24.96v-39.41h24.82v2.76h-21.6v14.81h18.98V224.18z"/>
		</g>
		<g>
			<path class="st0" d="M162.85,172.97c-10.63,0-20.78,0-30.93,0c0.11,4.25,1.84,6.63,5.6,7.88c3.55,1.18,7.2,1,10.84,0.44
				c3.44-0.53,6.86-1.15,10.66-1.79c1.09,2.81,2.19,5.66,3.29,8.49c-2.97,2.24-6.12,3.59-9.41,4.46
				c-5.68,1.51-11.51,2.07-17.46,1.44c-12.06-1.27-20.36-9.48-21.78-19.71c-0.93-6.76-0.74-13.46,2.34-19.91
				c5.07-10.61,15.09-14.21,27.02-13.03c5.2,0.51,9.89,2.18,13.62,5.72c3.84,3.64,5.73,8.17,6.14,13.11
				C163.12,164.14,162.85,168.26,162.85,172.97z M145.56,161.98c0.3-6.31-1.4-8.47-6.32-8.49c-5.18-0.02-7.75,2.79-7.56,8.49
				C136.19,161.98,140.71,161.98,145.56,161.98z"/>
			<path class="st0" d="M240.61,143.1l0.22,6.36c0,0,4.01-4.51,4.34-4.84c3.58-3.71,9.96-2.56,9.96-2.56v14.03
				c-2.13,0.03-5.11,0.02-8.02,0.06c-3.39,0.05-6.11,2.8-6.11,6.19v31.82h-16.14v-51.1L240.61,143.1z"/>
			<g>
				<g>
					<path class="st0" d="M215.83,163.94c-0.06-2.65-0.27-5.31-0.49-7.96c-0.5-5.86-4-9.87-9.47-12.44
						c-5.88-2.76-12.15-3.14-18.66-2.36c-5.24,0.63-9.98,2.07-13.72,5.6c-3.1,2.92-4.81,6.41-4.56,10.74h16.61
						c0.57-2.44,1.33-4.52,4.21-5.03c4.28-0.75,7.59,1.28,8.31,5.28c0.28,1.56,0.25,3.16,0.4,5.21c-2.15,0-3.87-0.09-5.59,0.01
						c-4.45,0.26-8.99,0.17-13.32,0.99c-12.1,2.27-17.22,14.3-10.82,23.78c4.24,6.28,20.63,9.84,27.36,1.49
						c0.72-0.89,1.5-1.76,2.36-2.77c1,2.38,1.92,4.55,2.82,6.67h16.89C215,183.17,216.02,173.52,215.83,163.94z M198.29,176.2
						c0,2.01-1.02,3.89-2.74,4.92c-1.66,0.99-3.61,1.41-5.79,1.39c-3.22-0.03-5.32-1.64-5.64-4.23c-0.34-2.88,1.24-5.66,4.07-6.17
						c3.2-0.58,6.5-0.64,10.1-0.95V176.2z"/>
				</g>
			</g>
		</g>
	</g>
</g>
</svg>
